<svg width="147" height="36" viewBox="0 0 147 36" fill="none" xmlns="http://www.w3.org/2000/svg">
<path d="M0.57139 29L8.65656 8.91565H11.8278L19.8844 29H15.7418L9.51364 12.5154H10.9421L4.62826 29H0.57139ZM4.85681 25.2574V22.0005H15.6561V25.2574H4.85681ZM25.1135 21.5434V18.3721H29.7703C30.3798 18.3721 30.9321 18.2483 31.4273 18.0007C31.9225 17.7531 32.313 17.4008 32.5987 16.9437C32.8844 16.4675 33.0272 15.8961 33.0272 15.2295C33.0272 14.5819 32.8844 14.0201 32.5987 13.5439C32.313 13.0677 31.9225 12.7059 31.4273 12.4583C30.9321 12.2107 30.3798 12.0869 29.7703 12.0869H25.1135V8.91565H30.1703C31.4464 8.91565 32.5892 9.17277 33.5986 9.68702C34.6271 10.2013 35.4366 10.9346 36.027 11.8869C36.6175 12.8201 36.9127 13.9344 36.9127 15.2295C36.9127 16.5247 36.6175 17.6484 36.027 18.6007C35.4366 19.534 34.6271 20.2577 33.5986 20.772C32.5892 21.2862 31.4464 21.5434 30.1703 21.5434H25.1135ZM22.2565 29V8.91565H26.142V29H22.2565ZM42.523 21.5434V18.3721H47.1798C47.7893 18.3721 48.3417 18.2483 48.8369 18.0007C49.3321 17.7531 49.7225 17.4008 50.0082 16.9437C50.2939 16.4675 50.4368 15.8961 50.4368 15.2295C50.4368 14.5819 50.2939 14.0201 50.0082 13.5439C49.7225 13.0677 49.3321 12.7059 48.8369 12.4583C48.3417 12.2107 47.7893 12.0869 47.1798 12.0869H42.523V8.91565H47.5798C48.8559 8.91565 49.9987 9.17277 51.0081 9.68702C52.0366 10.2013 52.8461 10.9346 53.4366 11.8869C54.027 12.8201 54.3222 13.9344 54.3222 15.2295C54.3222 16.5247 54.027 17.6484 53.4366 18.6007C52.8461 19.534 52.0366 20.2577 51.0081 20.772C49.9987 21.2862 48.8559 21.5434 47.5798 21.5434H42.523ZM39.6661 29V8.91565H43.5515V29H39.6661ZM56.8709 29V15.2009H60.6135V29H56.8709ZM60.6135 21.3719L59.1565 20.4006C59.3279 18.7055 59.8231 17.3722 60.6421 16.4009C61.4611 15.4104 62.642 14.9152 64.1847 14.9152C64.8513 14.9152 65.4513 15.0295 65.9846 15.2581C66.5179 15.4676 67.0036 15.8199 67.4416 16.3151L65.0989 19.0007C64.8894 18.7721 64.6323 18.6007 64.3276 18.4864C64.0419 18.3721 63.7085 18.315 63.3276 18.315C62.5277 18.315 61.8706 18.5721 61.3563 19.0864C60.8611 19.5816 60.6135 20.3434 60.6135 21.3719ZM74.9652 29.2857C73.5177 29.2857 72.2321 28.981 71.1083 28.3715C69.9846 27.7429 69.0894 26.8859 68.4228 25.8002C67.7752 24.7146 67.4514 23.4766 67.4514 22.0862C67.4514 20.7148 67.7657 19.4959 68.3942 18.4293C69.0418 17.3436 69.9179 16.4866 71.0226 15.858C72.1273 15.2105 73.3558 14.8867 74.7081 14.8867C76.0413 14.8867 77.2127 15.1914 78.2221 15.8009C79.2506 16.3913 80.0506 17.2103 80.622 18.2579C81.2124 19.2864 81.5076 20.4577 81.5076 21.7719C81.5076 22.0195 81.4886 22.2766 81.4505 22.5433C81.4315 22.7909 81.3838 23.0766 81.3077 23.4004L69.7084 23.4289V20.6291L79.5649 20.6006L78.0507 21.7719C78.0126 20.9529 77.8603 20.2673 77.5936 19.7149C77.346 19.1626 76.9746 18.7436 76.4794 18.4579C76.0032 18.1531 75.4128 18.0007 74.7081 18.0007C73.9653 18.0007 73.3177 18.1722 72.7654 18.515C72.213 18.8388 71.7845 19.3054 71.4797 19.9149C71.1941 20.5053 71.0512 21.2101 71.0512 22.029C71.0512 22.8671 71.2036 23.6004 71.5083 24.2289C71.8321 24.8384 72.2892 25.3145 72.8797 25.6574C73.4701 25.9812 74.1558 26.1431 74.9367 26.1431C75.6414 26.1431 76.2794 26.0288 76.8508 25.8002C77.4222 25.5526 77.9174 25.1907 78.3364 24.7146L80.5363 26.9144C79.8697 27.6953 79.0507 28.2858 78.0793 28.6857C77.127 29.0857 76.089 29.2857 74.9652 29.2857ZM90.3361 29.2857C88.9266 29.2857 87.66 28.9714 86.5363 28.3429C85.4126 27.7144 84.5269 26.8573 83.8794 25.7716C83.2318 24.686 82.908 23.467 82.908 22.1148C82.908 20.7434 83.2318 19.5149 83.8794 18.4293C84.5269 17.3436 85.4126 16.4866 86.5363 15.858C87.6791 15.2105 88.9457 14.8867 90.3361 14.8867C91.4217 14.8867 92.4216 15.0867 93.3359 15.4866C94.2501 15.8866 95.0405 16.458 95.7071 17.2008L93.3073 19.6292C92.9454 19.2292 92.5073 18.9245 91.9931 18.715C91.4979 18.5055 90.9455 18.4007 90.3361 18.4007C89.6504 18.4007 89.0314 18.5626 88.479 18.8864C87.9457 19.1911 87.5172 19.6197 87.1934 20.172C86.8887 20.7053 86.7363 21.3434 86.7363 22.0862C86.7363 22.8099 86.8887 23.4575 87.1934 24.0289C87.5172 24.5813 87.9457 25.0193 88.479 25.3431C89.0314 25.6478 89.6504 25.8002 90.3361 25.8002C90.9646 25.8002 91.5265 25.6955 92.0217 25.486C92.5359 25.2574 92.974 24.9336 93.3359 24.5146L95.7643 26.943C95.0595 27.7048 94.2501 28.2858 93.3359 28.6857C92.4216 29.0857 91.4217 29.2857 90.3361 29.2857ZM97.8838 29V15.2009H101.655V29H97.8838ZM99.7693 12.9725C99.1599 12.9725 98.6551 12.7725 98.2552 12.3726C97.8552 11.9535 97.6552 11.4393 97.6552 10.8298C97.6552 10.2394 97.8552 9.73464 98.2552 9.31562C98.6551 8.8966 99.1599 8.68709 99.7693 8.68709C100.398 8.68709 100.903 8.8966 101.284 9.31562C101.684 9.73464 101.883 10.2394 101.883 10.8298C101.883 11.4393 101.684 11.9535 101.284 12.3726C100.903 12.7725 100.398 12.9725 99.7693 12.9725ZM110.741 29.2857C109.484 29.2857 108.351 28.9714 107.342 28.3429C106.332 27.7144 105.542 26.8573 104.97 25.7716C104.399 24.686 104.113 23.467 104.113 22.1148C104.113 20.7434 104.399 19.5149 104.97 18.4293C105.542 17.3436 106.332 16.4866 107.342 15.858C108.351 15.2295 109.484 14.9152 110.741 14.9152C111.732 14.9152 112.617 15.1152 113.398 15.5152C114.179 15.9152 114.798 16.477 115.255 17.2008C115.732 17.9055 115.989 18.7055 116.027 19.6006V24.5717C115.989 25.486 115.732 26.2954 115.255 27.0001C114.798 27.7048 114.179 28.2667 113.398 28.6857C112.617 29.0857 111.732 29.2857 110.741 29.2857ZM111.427 25.8288C112.475 25.8288 113.322 25.486 113.97 24.8003C114.617 24.0956 114.941 23.1909 114.941 22.0862C114.941 21.3624 114.789 20.7244 114.484 20.172C114.198 19.6006 113.789 19.1626 113.255 18.8578C112.741 18.534 112.132 18.3721 111.427 18.3721C110.741 18.3721 110.132 18.534 109.599 18.8578C109.084 19.1626 108.675 19.6006 108.37 20.172C108.084 20.7244 107.942 21.3624 107.942 22.0862C107.942 22.829 108.084 23.4861 108.37 24.0575C108.675 24.6098 109.084 25.0479 109.599 25.3717C110.132 25.6764 110.741 25.8288 111.427 25.8288ZM114.741 29V25.286L115.341 21.9148L114.741 18.6007V15.2009H118.455V29H114.741ZM123.795 29V9.45847H127.537V29H123.795ZM120.566 18.4864V15.2009H130.765V18.4864H120.566ZM139.135 29.2857C137.687 29.2857 136.402 28.981 135.278 28.3715C134.154 27.7429 133.259 26.8859 132.593 25.8002C131.945 24.7146 131.621 23.4766 131.621 22.0862C131.621 20.7148 131.935 19.4959 132.564 18.4293C133.212 17.3436 134.088 16.4866 135.192 15.858C136.297 15.2105 137.526 14.8867 138.878 14.8867C140.211 14.8867 141.382 15.1914 142.392 15.8009C143.42 16.3913 144.22 17.2103 144.792 18.2579C145.382 19.2864 145.677 20.4577 145.677 21.7719C145.677 22.0195 145.658 22.2766 145.62 22.5433C145.601 22.7909 145.554 23.0766 145.477 23.4004L133.878 23.4289V20.6291L143.735 20.6006L142.22 21.7719C142.182 20.9529 142.03 20.2673 141.763 19.7149C141.516 19.1626 141.144 18.7436 140.649 18.4579C140.173 18.1531 139.583 18.0007 138.878 18.0007C138.135 18.0007 137.487 18.1722 136.935 18.515C136.383 18.8388 135.954 19.3054 135.65 19.9149C135.364 20.5053 135.221 21.2101 135.221 22.029C135.221 22.8671 135.373 23.6004 135.678 24.2289C136.002 24.8384 136.459 25.3145 137.049 25.6574C137.64 25.9812 138.326 26.1431 139.106 26.1431C139.811 26.1431 140.449 26.0288 141.021 25.8002C141.592 25.5526 142.087 25.1907 142.506 24.7146L144.706 26.9144C144.039 27.6953 143.22 28.2858 142.249 28.6857C141.297 29.0857 140.259 29.2857 139.135 29.2857Z" fill="white"/>
<path d="M134.719 11.9469L138.259 15.4869L143.31 10.4362L145.339 12.4655V7.15552H140.029L142.058 9.18482L138.259 12.9841L134.719 9.44413L127.898 16.2648L129.15 17.5162L134.719 11.9469Z" fill="white"/>
</svg>
