<svg width="197" height="48" viewBox="0 0 197 48" fill="none" xmlns="http://www.w3.org/2000/svg">
<path d="M0.766094 38L11.5994 11.089H15.8485L26.6436 38H21.0929L12.7478 15.9123H14.6618L6.2019 38H0.766094ZM6.50814 32.9853V28.6213H20.9781V32.9853H6.50814ZM33.6501 28.0088V23.7597H39.8897C40.7064 23.7597 41.4465 23.5938 42.11 23.2621C42.7735 22.9303 43.2967 22.4582 43.6795 21.8457C44.0623 21.2077 44.2537 20.4421 44.2537 19.5489C44.2537 18.6812 44.0623 17.9284 43.6795 17.2904C43.2967 16.6524 42.7735 16.1675 42.11 15.8357C41.4465 15.5039 40.7064 15.3381 39.8897 15.3381H33.6501V11.089H40.4257C42.1355 11.089 43.6667 11.4335 45.0193 12.1225C46.3974 12.8116 47.482 13.7941 48.2731 15.0701C49.0643 16.3206 49.4598 17.8135 49.4598 19.5489C49.4598 21.2843 49.0643 22.79 48.2731 24.066C47.482 25.3165 46.3974 26.2862 45.0193 26.9753C43.6667 27.6643 42.1355 28.0088 40.4257 28.0088H33.6501ZM29.822 38V11.089H35.0282V38H29.822ZM56.9771 28.0088V23.7597H63.2168C64.0335 23.7597 64.7735 23.5938 65.4371 23.2621C66.1006 22.9303 66.6238 22.4582 67.0066 21.8457C67.3894 21.2077 67.5808 20.4421 67.5808 19.5489C67.5808 18.6812 67.3894 17.9284 67.0066 17.2904C66.6238 16.6524 66.1006 16.1675 65.4371 15.8357C64.7735 15.5039 64.0335 15.3381 63.2168 15.3381H56.9771V11.089H63.7527C65.4626 11.089 66.9938 11.4335 68.3464 12.1225C69.7245 12.8116 70.8091 13.7941 71.6002 15.0701C72.3913 16.3206 72.7869 17.8135 72.7869 19.5489C72.7869 21.2843 72.3913 22.79 71.6002 24.066C70.8091 25.3165 69.7245 26.2862 68.3464 26.9753C66.9938 27.6643 65.4626 28.0088 63.7527 28.0088H56.9771ZM53.1491 38V11.089H58.3552V38H53.1491ZM76.2019 38V19.5106H81.2166V38H76.2019ZM81.2166 27.7792L79.2643 26.4776C79.494 24.2063 80.1575 22.4199 81.2549 21.1184C82.3523 19.7913 83.9345 19.1278 86.0017 19.1278C86.8949 19.1278 87.6987 19.2809 88.4133 19.5872C89.1279 19.8679 89.7786 20.34 90.3656 21.0035L87.2266 24.6019C86.9459 24.2957 86.6014 24.066 86.1931 23.9129C85.8103 23.7597 85.3637 23.6832 84.8532 23.6832C83.7814 23.6832 82.901 24.0277 82.2119 24.7167C81.5484 25.3803 81.2166 26.4011 81.2166 27.7792ZM100.446 38.3828C98.5069 38.3828 96.7843 37.9745 95.2786 37.1578C93.773 36.3157 92.5735 35.1673 91.6803 33.7126C90.8126 32.258 90.3788 30.5991 90.3788 28.7362C90.3788 26.8987 90.7998 25.2654 91.642 23.8363C92.5097 22.3816 93.6836 21.2332 95.1638 20.3911C96.644 19.5234 98.29 19.0895 100.102 19.0895C101.888 19.0895 103.458 19.4979 104.81 20.3145C106.189 21.1056 107.26 22.203 108.026 23.6066C108.817 24.9847 109.213 26.5542 109.213 28.3151C109.213 28.6468 109.187 28.9914 109.136 29.3487C109.111 29.6804 109.047 30.0632 108.945 30.4971L93.4029 30.5353V26.7839L106.61 26.7456L104.581 28.3151C104.53 27.2177 104.326 26.299 103.968 25.5589C103.637 24.8188 103.139 24.2574 102.475 23.8746C101.837 23.4662 101.046 23.2621 100.102 23.2621C99.1067 23.2621 98.239 23.4918 97.4989 23.9511C96.7588 24.385 96.1846 25.0102 95.7763 25.8269C95.3935 26.618 95.2021 27.5622 95.2021 28.6596C95.2021 29.7825 95.4062 30.765 95.8146 31.6072C96.2484 32.4238 96.8609 33.0618 97.652 33.5212C98.4431 33.955 99.3619 34.172 100.408 34.172C101.352 34.172 102.207 34.0188 102.973 33.7126C103.739 33.3808 104.402 32.896 104.964 32.258L107.911 35.2055C107.018 36.2519 105.921 37.043 104.619 37.5789C103.343 38.1148 101.952 38.3828 100.446 38.3828ZM121.042 38.3828C119.153 38.3828 117.456 37.9617 115.951 37.1196C114.445 36.2774 113.258 35.129 112.391 33.6743C111.523 32.2197 111.089 30.5864 111.089 28.7744C111.089 26.937 111.523 25.2909 112.391 23.8363C113.258 22.3816 114.445 21.2332 115.951 20.3911C117.482 19.5234 119.179 19.0895 121.042 19.0895C122.497 19.0895 123.836 19.3575 125.061 19.8934C126.286 20.4293 127.345 21.195 128.239 22.1902L125.023 25.4441C124.538 24.9081 123.951 24.4998 123.262 24.2191C122.599 23.9384 121.859 23.798 121.042 23.798C120.123 23.798 119.294 24.0149 118.554 24.4488C117.839 24.8571 117.265 25.4313 116.831 26.1714C116.423 26.886 116.219 27.7409 116.219 28.7362C116.219 29.7059 116.423 30.5736 116.831 31.3392C117.265 32.0793 117.839 32.6663 118.554 33.1001C119.294 33.5084 120.123 33.7126 121.042 33.7126C121.884 33.7126 122.637 33.5722 123.3 33.2915C123.989 32.9853 124.576 32.5514 125.061 31.99L128.315 35.2438C127.371 36.2646 126.286 37.043 125.061 37.5789C123.836 38.1148 122.497 38.3828 121.042 38.3828ZM131.155 38V19.5106H136.208V38H131.155ZM133.682 16.5248C132.865 16.5248 132.189 16.2568 131.653 15.7209C131.117 15.1594 130.849 14.4704 130.849 13.6537C130.849 12.8626 131.117 12.1863 131.653 11.6249C132.189 11.0634 132.865 10.7827 133.682 10.7827C134.524 10.7827 135.2 11.0634 135.71 11.6249C136.246 12.1863 136.514 12.8626 136.514 13.6537C136.514 14.4704 136.246 15.1594 135.71 15.7209C135.2 16.2568 134.524 16.5248 133.682 16.5248ZM148.383 38.3828C146.699 38.3828 145.18 37.9617 143.828 37.1196C142.475 36.2774 141.416 35.129 140.65 33.6743C139.885 32.2197 139.502 30.5864 139.502 28.7744C139.502 26.937 139.885 25.2909 140.65 23.8363C141.416 22.3816 142.475 21.2332 143.828 20.3911C145.18 19.5489 146.699 19.1278 148.383 19.1278C149.71 19.1278 150.897 19.3958 151.943 19.9317C152.989 20.4676 153.819 21.2205 154.431 22.1902C155.069 23.1345 155.414 24.2063 155.465 25.4058V32.0666C155.414 33.2915 155.069 34.3761 154.431 35.3204C153.819 36.2646 152.989 37.0175 151.943 37.5789C150.897 38.1148 149.71 38.3828 148.383 38.3828ZM149.302 33.7509C150.705 33.7509 151.841 33.2915 152.709 32.3728C153.576 31.4285 154.01 30.2163 154.01 28.7362C154.01 27.7664 153.806 26.9115 153.398 26.1714C153.015 25.4058 152.466 24.8188 151.752 24.4105C151.063 23.9767 150.246 23.7597 149.302 23.7597C148.383 23.7597 147.566 23.9767 146.852 24.4105C146.163 24.8188 145.614 25.4058 145.206 26.1714C144.823 26.9115 144.632 27.7664 144.632 28.7362C144.632 29.7315 144.823 30.6119 145.206 31.3775C145.614 32.1176 146.163 32.7046 146.852 33.1384C147.566 33.5467 148.383 33.7509 149.302 33.7509ZM153.742 38V33.0236L154.546 28.5065L153.742 24.066V19.5106H158.719V38H153.742ZM165.873 38V11.8163H170.888V38H165.873ZM161.547 23.9129V19.5106H175.213V23.9129H161.547ZM186.428 38.3828C184.488 38.3828 182.765 37.9745 181.26 37.1578C179.754 36.3157 178.555 35.1673 177.661 33.7126C176.794 32.258 176.36 30.5991 176.36 28.7362C176.36 26.8987 176.781 25.2654 177.623 23.8363C178.491 22.3816 179.665 21.2332 181.145 20.3911C182.625 19.5234 184.271 19.0895 186.083 19.0895C187.87 19.0895 189.439 19.4979 190.792 20.3145C192.17 21.1056 193.242 22.203 194.007 23.6066C194.798 24.9847 195.194 26.5542 195.194 28.3151C195.194 28.6468 195.168 28.9914 195.117 29.3487C195.092 29.6804 195.028 30.0632 194.926 30.4971L179.384 30.5353V26.7839L192.591 26.7456L190.562 28.3151C190.511 27.2177 190.307 26.299 189.949 25.5589C189.618 24.8188 189.12 24.2574 188.456 23.8746C187.818 23.4662 187.027 23.2621 186.083 23.2621C185.088 23.2621 184.22 23.4918 183.48 23.9511C182.74 24.385 182.166 25.0102 181.757 25.8269C181.375 26.618 181.183 27.5622 181.183 28.6596C181.183 29.7825 181.387 30.765 181.796 31.6072C182.23 32.4238 182.842 33.0618 183.633 33.5212C184.424 33.955 185.343 34.172 186.389 34.172C187.334 34.172 188.189 34.0188 188.954 33.7126C189.72 33.3808 190.383 32.896 190.945 32.258L193.892 35.2055C192.999 36.2519 191.902 37.043 190.6 37.5789C189.324 38.1148 187.933 38.3828 186.428 38.3828Z" fill="#00C567"/>
<path d="M180.511 16.0078L185.254 20.751L192.021 13.9836L194.74 16.7026V9.58777H187.625L190.345 12.3068L185.254 17.3975L180.511 12.6543L171.372 21.7933L173.048 23.4701L180.511 16.0078Z" fill="#00C567"/>
</svg>
